<?xml version="1.0" encoding="utf-8"?>
<!-- Generator: Adobe Illustrator 16.0.0, SVG Export Plug-In . SVG Version: 6.00 Build 0)  -->
<!DOCTYPE svg PUBLIC "-//W3C//DTD SVG 1.1//EN" "http://www.w3.org/Graphics/SVG/1.1/DTD/svg11.dtd">
<svg version="1.1" id="Layer_1" xmlns="http://www.w3.org/2000/svg" xmlns:xlink="http://www.w3.org/1999/xlink" x="0px" y="0px"
	 width="1215px" height="250px" viewBox="0 0 1215 250" enable-background="new 0 0 1215 250" xml:space="preserve">
<g>
	<g>
		<g>
			<rect x="611.062" y="26.624" fill="#012169" width="38.74" height="196.752"/>
			<rect x="554.997" y="96.965" fill="#012169" width="38.737" height="127.43"/>
			<path fill="#012169" d="M498.93,110.221c-8.156-9.175-19.369-16.311-36.702-16.311c-35.683,0-65.246,28.542-65.246,66.259
				c0,54.032,48.934,67.283,65.246,67.283c13.253,0,27.524-5.093,36.702-16.306v13.253h38.737V96.97H498.93V110.221L498.93,110.221z
				 M465.285,190.754c-17.327,0-31.601-13.258-31.601-30.585c0-16.306,14.273-30.578,31.601-30.578
				c17.331,0,31.603,13.251,31.603,30.578C496.888,176.482,482.616,190.754,465.285,190.754z"/>
			<rect x="944.429" y="96.965" fill="#012169" width="38.735" height="127.43"/>
			<polygon fill="#012169" points="1214.581,96.965 1190.112,96.965 1190.112,47.014 1152.391,47.014 1152.391,96.965 
				1128.946,96.965 1128.946,126.525 1152.391,126.525 1152.391,224.395 1190.112,224.395 1190.112,126.525 1214.581,126.525 			"/>
			<path fill="#012169" d="M1077.971,93.91c-17.329,0-30.588,8.152-38.735,21.408V96.965h-38.736v127.43h38.736v-68.303
				c0-17.329,10.196-25.486,23.444-25.486c14.272,0,21.411,11.215,21.411,22.425v71.364h38.736v-75.434
				C1122.827,116.333,1109.573,93.91,1077.971,93.91z"/>
			<path fill="#012169" d="M295.04,89.831c0-11.215,9.176-19.371,25.485-19.371c12.231,0,24.467,7.137,24.467,21.409h39.759
				c0-34.662-24.466-58.111-63.205-58.111c-41.8,0-65.245,27.528-65.245,56.073c0,27.525,15.288,42.814,45.873,53.003
				c23.447,8.16,48.935,9.182,48.935,28.55c0,12.231-11.218,20.385-27.527,20.385c-13.254,0-28.543-8.147-28.543-22.425H255.28
				c0,30.585,23.447,58.108,68.304,58.108c44.854,0,68.303-25.48,68.303-57.087C389.849,104.101,295.04,119.393,295.04,89.831z"/>
			<path fill="#012169" d="M867.971,93.91c-40.784,0-66.267,29.563-66.267,66.259c0,39.76,29.564,66.27,66.267,66.27
				c40.774,0,66.262-29.571,66.262-66.27C935.251,123.469,909.765,93.91,867.971,93.91z M867.971,189.732
				c-16.315,0-28.55-13.25-28.55-28.542c0-16.313,13.258-28.545,28.55-28.545c16.306,0,28.545,13.253,28.545,28.545
				C897.53,176.482,884.276,189.732,867.971,189.732z"/>
			<ellipse fill="#012169" cx="574.366" cy="54.149" rx="23.449" ry="22.428"/>
			<ellipse fill="#012169" cx="963.796" cy="54.149" rx="23.445" ry="22.428"/>
			<path fill="#012169" d="M745.634,35.801h-37.723l0,0h-40.773v188.594h40.773v-64.226h34.664c41.799,0,64.225-25.48,64.225-62.181
				C806.8,63.324,785.388,35.801,745.634,35.801z M741.552,124.493h-33.635V71.482h35.684c16.305,0,23.443,14.272,23.443,25.487
				C767.04,111.237,757.868,124.493,741.552,124.493z"/>
			<path fill="#012169" d="M124.791,10.313l10.193,28.542c42.816,8.155,75.439,44.858,75.439,89.709
				c0,49.955-40.779,91.749-91.752,91.749c-21.409,0-41.796-8.147-58.109-20.385c8.154-2.04,18.352-2.04,26.503-3.062
				c27.527-22.426,45.877-56.066,45.877-103.979c1.017-34.665-10.193-67.284-20.391-90.73
				c-8.155,59.128-34.663,139.662-69.319,178.4c-10.195-14.272-15.291-31.598-15.291-50.968c0-42.817,28.542-78.501,68.304-88.697
				l5.096-28.542C44.255,20.51,0.419,69.441,0.419,129.591c0,65.24,53.01,118.251,118.255,118.251
				c65.249,0,118.259-53.011,118.259-118.251C237.948,66.384,187.997,14.39,124.791,10.313z"/>
			<path fill="#012169" d="M93.188,202.991l81.557-10.193c6.118-11.218,9.178-24.469,9.178-37.725
				c0-31.6-18.353-67.283-44.856-97.863c1.018,4.078,4.075,18.351,4.075,39.76C143.139,141.82,121.731,177.496,93.188,202.991z"/>
		</g>
	</g>
</g>
</svg>
