<svg width="177" height="165" viewBox="0 0 177 165" fill="none" xmlns="http://www.w3.org/2000/svg">
<path d="M0 82.5C0 36.9365 36.9365 0 82.5 0V0C128.063 0 165 36.9365 165 82.5V82.5C165 128.063 128.063 165 82.5 165V165C36.9365 165 0 128.063 0 82.5V82.5Z" fill="#3586FF"/>
<path d="M31.4545 115L31.4545 45.1818H39.9091L39.9091 107.5L72.3636 107.5V115L31.4545 115ZM85.4545 115L85.4545 45.1818H93.9091L93.9091 76.2727L131.136 76.2727V45.1818H139.591V115H131.136V83.7727L93.9091 83.7727V115H85.4545Z" fill="white"/>
</svg>
